<svg height="200px" width="200px" version="1.1" id="Layer_1" xmlns="http://www.w3.org/2000/svg" xmlns:xlink="http://www.w3.org/1999/xlink" viewBox="-51.2 -51.2 614.40 614.40" xml:space="preserve" fill="#000000"><g id="SVGRepo_bgCarrier" stroke-width="0"><rect x="-51.2" y="-51.2" width="614.40" height="614.40" rx="307.2" fill="#7AC4FA" strokewidth="0"></rect></g><g id="SVGRepo_tracerCarrier" stroke-linecap="round" stroke-linejoin="round"></g><g id="SVGRepo_iconCarrier"> <path style="fill:#7AC4FA;" d="M383.992,473.6c-16.546,0-31.181-10.547-36.42-26.257l-18.953-56.806l-81.954-20.497 c-17.118-4.284-29.073-19.601-29.073-37.239V230.4c0-21.171,17.229-38.4,38.4-38.4s38.4,17.229,38.4,38.4v72.405l73.31,18.347 c12.8,3.166,22.955,12.553,27.119,25.114l25.591,76.783c3.251,9.745,2.509,20.164-2.091,29.346 c-4.582,9.165-12.467,16-22.195,19.217C392.193,472.934,388.105,473.6,383.992,473.6z"></path> <path style="fill:#7AC4FA;" d="M217.592,499.2c-70.579,0-128-57.421-128-128c0-65.323,48.913-119.996,113.792-127.172l14.208-1.579 V332.8c0,17.638,11.955,32.956,29.082,37.239l81.946,20.497l8.695,26.027l-1.886,4.454C315.324,468.514,269.065,499.2,217.592,499.2 z"></path> <path style="fill:#7AC4FA;" d="M255.992,140.8c-35.294,0-64-28.706-64-64s28.706-64,64-64s64,28.706,64,64 S291.286,140.8,255.992,140.8z"></path> <g> <path style="fill:#ffffff;" d="M255.992,153.6c42.351,0,76.8-34.449,76.8-76.8S298.343,0,255.992,0s-76.8,34.449-76.8,76.8 S213.641,153.6,255.992,153.6z M255.992,25.6c28.279,0,51.2,22.921,51.2,51.2s-22.921,51.2-51.2,51.2s-51.2-22.921-51.2-51.2 S227.713,25.6,255.992,25.6z"></path> <path style="fill:#ffffff;" d="M432.555,419.004l-25.6-76.8c-5.538-16.717-19.081-29.252-36.224-33.485l-63.539-15.906V230.4 c0-28.228-22.972-51.2-51.2-51.2s-51.2,22.972-51.2,51.2v0.649c-71.654,6.494-128,66.833-128,140.151 c0,77.636,63.164,140.8,140.8,140.8c48.811,0,91.819-25.02,117.086-62.857l0.751,2.253c6.98,20.932,26.496,35.004,48.563,35.004 c5.495,0,10.94-0.887,16.196-2.637c12.945-4.301,23.458-13.397,29.577-25.626C435.892,445.892,436.882,432,432.555,419.004z M217.592,486.4c-63.625,0-115.2-51.575-115.2-115.2c0-59.29,44.809-108.075,102.4-114.449V332.8 c0,23.526,15.94,43.947,38.775,49.655l75.136,18.79l4.932,14.78C306.142,457.361,265.293,486.4,217.592,486.4z M392.09,459.477 c-2.697,0.896-5.427,1.323-8.098,1.323c-10.726,0-20.702-6.775-24.277-17.502l-21.171-63.471l-88.764-22.204 c-11.383-2.85-19.388-13.073-19.388-24.823V230.4c0-14.148,11.46-25.6,25.6-25.6c14.14,0,25.6,11.452,25.6,25.6v82.398 l83.004,20.779c8.499,2.099,15.326,8.422,18.074,16.725l25.6,76.8C412.741,440.525,405.496,455.023,392.09,459.477z"></path> </g> </g></svg>