<svg xmlns="http://www.w3.org/2000/svg" xmlns:xlink="http://www.w3.org/1999/xlink" version="1.1" width="256" height="256" viewBox="0 0 256 256" xml:space="preserve">

<defs>
</defs>
<g style="stroke: none; stroke-width: 0; stroke-dasharray: none; stroke-linecap: butt; stroke-linejoin: miter; stroke-miterlimit: 10; fill: none; fill-rule: nonzero; opacity: 1;" transform="translate(1.4065934065934016 1.4065934065934016) scale(2.81 2.81)" >
	<linearGradient id="SVGID_6" gradientUnits="userSpaceOnUse" x1="45" y1="84.7883" x2="45" y2="4.2607">
<stop offset="0%" style="stop-color:#7ac4fa;stop-opacity: 1"/>
<stop offset="100%" style="stop-color:#7ac4fa;stop-opacity: 1"/>
</linearGradient>
<circle cx="45" cy="45" r="45" style="stroke: none; stroke-width: 1; stroke-dasharray: none; stroke-linecap: butt; stroke-linejoin: miter; stroke-miterlimit: 10; fill: url(#SVGID_6); fill-rule: nonzero; opacity: 1;" transform="  matrix(1 0 0 1 0 0) "/>
	<path d="M 49.798 55.043 c 0 -1.522 -0.376 -2.716 -1.127 -3.584 c -0.752 -0.867 -2.072 -1.686 -3.96 -2.456 c -1.889 -0.77 -3.632 -1.551 -5.231 -2.341 s -2.977 -1.706 -4.133 -2.746 c -1.156 -1.04 -2.043 -2.245 -2.659 -3.614 c -0.617 -1.367 -0.925 -3.024 -0.925 -4.971 c 0 -3.256 1.098 -5.939 3.295 -8.049 c 2.196 -2.11 5.125 -3.338 8.786 -3.685 V 17.5 h 4.596 v 6.214 c 3.525 0.521 6.295 1.971 8.309 4.35 c 2.013 2.38 3.02 5.4 3.02 9.06 H 50 c 0 -2.003 -0.386 -3.545 -1.157 -4.624 c -0.77 -1.079 -1.869 -1.618 -3.294 -1.618 c -1.272 0 -2.259 0.4 -2.963 1.199 c -0.703 0.8 -1.055 1.903 -1.055 3.309 c 0 1.426 0.405 2.558 1.214 3.396 c 0.809 0.838 2.11 1.638 3.902 2.399 c 1.792 0.761 3.483 1.551 5.072 2.37 c 1.589 0.819 2.962 1.748 4.119 2.789 c 1.156 1.04 2.061 2.255 2.716 3.642 c 0.655 1.387 0.983 3.054 0.983 4.999 c 0 3.295 -1.045 5.983 -3.136 8.064 c -2.091 2.081 -4.937 3.295 -8.541 3.641 V 72.5 h -4.595 v -5.838 c -4.201 -0.444 -7.423 -1.883 -9.668 -4.321 c -2.245 -2.437 -3.367 -5.65 -3.367 -9.638 h 9.74 c 0 2.197 0.486 3.869 1.459 5.014 c 0.973 1.147 2.356 1.72 4.148 1.72 c 1.31 0 2.341 -0.39 3.093 -1.171 C 49.421 57.485 49.798 56.412 49.798 55.043 z" style="stroke: none; stroke-width: 1; stroke-dasharray: none; stroke-linecap: butt; stroke-linejoin: miter; stroke-miterlimit: 10; fill: rgb(255,255,255); fill-rule: nonzero; opacity: 1;" transform=" matrix(1 0 0 1 0 0) " stroke-linecap="round" />
</g>
</svg>