<?xml version="1.0" encoding="UTF-8"?>
<svg version="1.1" xmlns="http://www.w3.org/2000/svg" width="512" height="512">
<path d="M0 0 C0.70189453 0.33725098 1.40378906 0.67450195 2.12695312 1.02197266 C23.41085316 11.41242154 41.88786425 25.75119841 59 42 C59.53415527 42.50547363 60.06831055 43.01094727 60.61865234 43.53173828 C68.91670386 51.44016361 76.1761515 59.79728921 83 69 C83.4237793 69.56299805 83.84755859 70.12599609 84.28417969 70.70605469 C121.28976672 119.9994308 136.9601537 183.54712486 128.47875977 244.53686523 C121.93125218 286.08128732 105.66542188 325.34329662 79 358 C78.1853125 359.01835937 77.370625 360.03671875 76.53125 361.0859375 C64.9470585 375.34272322 51.82181337 388.15581613 37 399 C35.87216154 399.84604192 34.74455819 400.69239736 33.6171875 401.5390625 C3.08506681 424.18699466 -32.57448312 438.05976728 -70 444 C-70.74942871 444.12842285 -71.49885742 444.2568457 -72.27099609 444.38916016 C-96.0466866 448.37126808 -122.3777351 447.2531058 -146 443 C-146.89477051 442.83902832 -147.78954102 442.67805664 -148.71142578 442.51220703 C-193.91184566 433.99879341 -235.35401482 412.74054643 -268.265625 380.6875 C-269.90547243 379.09197277 -271.56040286 377.51375075 -273.21875 375.9375 C-280.09008891 369.32733317 -286.07260707 362.24020003 -291.78759766 354.61376953 C-292.85830727 353.18860026 -293.94916093 351.77861319 -295.04296875 350.37109375 C-325.02199477 310.87295432 -340.56098631 260.79790951 -340.3125 211.4375 C-340.31034485 210.65796967 -340.3081897 209.87843933 -340.30596924 209.07528687 C-340.10522829 163.50883115 -327.06526406 117.68471913 -301 80 C-300.35297119 79.06220703 -300.35297119 79.06220703 -299.69287109 78.10546875 C-285.55740428 57.83379527 -268.66943071 38.87206215 -248.6796875 24.23095703 C-247.0029241 23.00214293 -245.34512847 21.75055492 -243.6875 20.49609375 C-213.58364685 -1.96776636 -177.92309939 -15.8953247 -141 -22 C-140.27683594 -22.12842285 -139.55367187 -22.2568457 -138.80859375 -22.38916016 C-92.03071043 -30.44460008 -42.27173851 -20.32588328 0 0 Z M-229 89 C-237.96789364 99.88254597 -243.15802421 111.35095275 -243.14044189 125.58853149 C-243.14341302 126.34458313 -243.14638414 127.10063477 -243.1494453 127.87959707 C-243.15810531 130.40883771 -243.15963827 132.93803087 -243.16113281 135.46728516 C-243.16576297 137.282665 -243.1707879 139.09804388 -243.17617798 140.91342163 C-243.18928667 145.84345861 -243.19574419 150.77348197 -243.20018864 155.70353365 C-243.2031224 158.78632953 -243.20722783 161.86912172 -243.21169281 164.95191574 C-243.22536496 174.60494965 -243.23503247 184.25797509 -243.2388947 193.91101801 C-243.24337207 205.03933115 -243.26090626 216.16752125 -243.2898953 227.29579699 C-243.31154452 235.90661672 -243.32160075 244.51740193 -243.32293582 253.12824857 C-243.32398171 258.26666521 -243.32984327 263.40496615 -243.34775543 268.54335403 C-243.36429172 273.38116856 -243.36636472 278.21878112 -243.35761642 283.05661392 C-243.35684897 284.82581627 -243.36115009 286.59502973 -243.37107468 288.36420441 C-243.46600697 306.3514355 -240.06352741 321.76818238 -227 335 C-216.11745403 343.96789364 -204.64904725 349.15802421 -190.41146851 349.14044189 C-189.65541687 349.14341302 -188.89936523 349.14638414 -188.12040293 349.1494453 C-185.59116229 349.15810531 -183.06196913 349.15963827 -180.53271484 349.16113281 C-178.717335 349.16576297 -176.90195612 349.1707879 -175.08657837 349.17617798 C-170.15654139 349.18928667 -165.22651803 349.19574419 -160.29646635 349.20018864 C-157.21367047 349.2031224 -154.13087828 349.20722783 -151.04808426 349.21169281 C-141.39505035 349.22536496 -131.74202491 349.23503247 -122.08898199 349.2388947 C-110.96066885 349.24337207 -99.83247875 349.26090626 -88.70420301 349.2898953 C-80.09338328 349.31154452 -71.48259807 349.32160075 -62.87175143 349.32293582 C-57.73333479 349.32398171 -52.59503385 349.32984327 -47.45664597 349.34775543 C-42.61883144 349.36429172 -37.78121888 349.36636472 -32.94338608 349.35761642 C-31.17418373 349.35684897 -29.40497027 349.36115009 -27.63579559 349.37107468 C-9.6485645 349.46600697 5.76818238 346.06352741 19 333 C27.96246397 322.12404294 33.15092055 310.66003346 33.14717102 296.43165588 C33.15268605 295.30075347 33.15268605 295.30075347 33.1583125 294.14700454 C33.16931094 291.62477015 33.1731867 289.10257701 33.17700195 286.58032227 C33.1832697 284.76980968 33.18991678 282.95929837 33.19691467 281.14878845 C33.21792735 275.20467011 33.22831715 269.26055161 33.23828125 263.31640625 C33.2423304 261.26590397 33.24644737 259.21540183 33.25063133 257.16489983 C33.26967996 247.52627834 33.28390948 237.88766448 33.2922433 228.24902779 C33.30200297 217.14617827 33.32829069 206.04352879 33.36874419 194.9407497 C33.39898051 186.34517045 33.41371945 177.74964828 33.41702431 169.15401691 C33.41936697 164.02719961 33.4282244 158.90059608 33.45348549 153.77383614 C33.47690185 148.94335706 33.48094532 144.11323042 33.47072411 139.28270912 C33.47023185 137.51959811 33.47645952 135.75646893 33.49028015 133.99341202 C33.62769605 115.40836534 29.7094127 101.22110496 17 87 C6.0495791 78.02472133 -5.33678328 72.84195829 -19.58853149 72.85955811 C-20.34458313 72.85658698 -21.10063477 72.85361586 -21.87959707 72.8505547 C-24.40883771 72.84189469 -26.93803087 72.84036173 -29.46728516 72.83886719 C-31.282665 72.83423703 -33.09804388 72.8292121 -34.91342163 72.82382202 C-39.84345861 72.81071333 -44.77348197 72.80425581 -49.70353365 72.79981136 C-52.78632953 72.7968776 -55.86912172 72.79277217 -58.95191574 72.78830719 C-68.60494965 72.77463504 -78.25797509 72.76496753 -87.91101801 72.7611053 C-99.03933115 72.75662793 -110.16752125 72.73909374 -121.29579699 72.7101047 C-129.90661672 72.68845548 -138.51740193 72.67839925 -147.12824857 72.67706418 C-152.26666521 72.67601829 -157.40496615 72.67015673 -162.54335403 72.65224457 C-167.38116856 72.63570828 -172.21878112 72.63363528 -177.05661392 72.64238358 C-178.82581627 72.64315103 -180.59502973 72.63884991 -182.36420441 72.62892532 C-200.3514355 72.53399303 -215.76818238 75.93647259 -229 89 Z " fill="#7AC4FA" transform="translate(361,45)"/>
<path d="M0 0 C0.73225589 -0.00297112 1.46451178 -0.00594224 2.21895725 -0.0090034 C4.66761504 -0.0176607 7.11622376 -0.01919613 9.56489563 -0.02069092 C11.32278548 -0.02532123 13.08067433 -0.03034618 14.83856201 -0.03573608 C19.61151205 -0.04884243 24.38444803 -0.05530172 29.15741324 -0.05974674 C32.14170568 -0.06268061 35.1259943 -0.06678604 38.11028481 -0.07125092 C47.45416772 -0.08492185 56.79804188 -0.09459021 66.1419341 -0.09845281 C76.9153858 -0.10293123 87.68871048 -0.12047084 98.46212357 -0.1494534 C106.7977708 -0.17109671 115.13338236 -0.18115852 123.46905738 -0.18249393 C128.44368204 -0.18354015 133.41818723 -0.18940895 138.39278221 -0.20731354 C143.07546904 -0.22383982 147.75794718 -0.22592765 152.44065285 -0.21717453 C154.15383591 -0.21640656 155.86703041 -0.22071498 157.58018494 -0.23063278 C171.44984548 -0.30618103 182.09963556 0.72364858 192.35517883 10.83966064 C199.02055608 18.12735813 200.75084214 25.76715294 200.77296448 35.50791931 C200.7759356 36.2401752 200.77890672 36.97243109 200.78196788 37.72687656 C200.79062518 40.17553435 200.79216061 42.62414307 200.7936554 45.07281494 C200.79828571 46.83070479 200.80331066 48.58859364 200.80870056 50.34648132 C200.8218069 55.11943136 200.8282662 59.89236734 200.83271122 64.66533256 C200.83564509 67.64962499 200.83975052 70.63391361 200.84421539 73.61820412 C200.85788633 82.96208703 200.86755469 92.30596119 200.87141728 101.64985341 C200.87589571 112.42330511 200.89343532 123.1966298 200.92241788 133.97004288 C200.94406119 142.30569011 200.954123 150.64130167 200.9554584 158.97697669 C200.95650463 163.95160135 200.96237342 168.92610654 200.98027802 173.90070152 C200.99680429 178.58338835 200.99889213 183.26586649 200.99013901 187.94857216 C200.98937104 189.66175522 200.99367946 191.37494972 201.00359726 193.08810425 C201.0791455 206.95776479 200.0493159 217.60755487 189.93330383 227.86309814 C182.64560635 234.52847539 175.00581153 236.25876146 165.26504517 236.28088379 C164.16666133 236.28534047 164.16666133 236.28534047 163.04608792 236.28988719 C160.59743013 236.29854449 158.1488214 236.30007992 155.70014954 236.30157471 C153.94225969 236.30620502 152.18437084 236.31122997 150.42648315 236.31661987 C145.65353312 236.32972622 140.88059714 236.33618551 136.10763192 236.34063053 C133.12333949 236.3435644 130.13905087 236.34766983 127.15476036 236.3521347 C117.81087745 236.36580564 108.46700329 236.375474 99.12311107 236.3793366 C88.34965937 236.38381502 77.57633468 236.40135463 66.80292159 236.43033719 C58.46727437 236.4519805 50.1316628 236.46204231 41.79598778 236.46337771 C36.82136313 236.46442394 31.84685794 236.47029274 26.87226295 236.48819733 C22.18957613 236.5047236 17.50709799 236.50681144 12.82439232 236.49805832 C11.11120925 236.49729035 9.39801476 236.50159877 7.68486023 236.51151657 C-6.18480031 236.58706482 -16.8345904 235.55723521 -27.09013367 225.44122314 C-33.75551091 218.15352566 -35.48579698 210.51373084 -35.50791931 200.77296448 C-35.51089043 200.04070859 -35.51386156 199.3084527 -35.51692271 198.55400723 C-35.52558001 196.10534944 -35.52711545 193.65674071 -35.52861023 191.20806885 C-35.53324054 189.450179 -35.53826549 187.69229015 -35.5436554 185.93440247 C-35.55676174 181.16145243 -35.56322103 176.38851645 -35.56766605 171.61555123 C-35.57059992 168.6312588 -35.57470535 165.64697018 -35.57917023 162.66267967 C-35.59284116 153.31879676 -35.60250952 143.9749226 -35.60637212 134.63103038 C-35.61085054 123.85757868 -35.62839015 113.08425399 -35.65737271 102.3108409 C-35.67901603 93.97519368 -35.68907783 85.63958211 -35.69041324 77.3039071 C-35.69145946 72.32928244 -35.69732826 67.35477725 -35.71523285 62.38018227 C-35.73175913 57.69749544 -35.73384697 53.0150173 -35.72509384 48.33231163 C-35.72432588 46.61912857 -35.72863429 44.90593407 -35.73855209 43.19277954 C-35.81410034 29.323119 -34.78427074 18.67332891 -24.66825867 8.41778564 C-17.38056119 1.7524084 -9.74076637 0.02212233 0 0 Z M20.69502258 58.82794189 C19.11546723 62.26579766 18.84145339 65.48265409 19.63252258 69.14044189 C22.16705915 72.35998834 23.74549563 73.84476624 27.63252258 75.14044189 C29.12904573 75.23544514 30.62941147 75.27531238 32.12893677 75.28088379 C33.04994675 75.28659393 33.97095673 75.29230408 34.9198761 75.29818726 C36.43242981 75.29986404 36.43242981 75.29986404 37.97554016 75.30157471 C39.03923325 75.30653961 40.10292633 75.31150452 41.19885254 75.31661987 C44.72492617 75.3312493 48.25095481 75.33804483 51.77705383 75.34356689 C54.22461956 75.34931771 56.67218528 75.35507545 59.11975098 75.36083984 C64.25527659 75.37135206 69.39078654 75.37719329 74.52632141 75.38067627 C81.10714275 75.38616139 87.68775723 75.4101891 94.26851368 75.43864822 C99.32569992 75.45727096 104.3828363 75.46248002 109.44005394 75.46401215 C111.86614297 75.46704002 114.29223109 75.47507304 116.71828651 75.48819733 C120.11279162 75.50524971 123.50679086 75.50337926 126.90132141 75.49688721 C127.90361786 75.50610199 128.90591431 75.51531677 129.93858337 75.52481079 C135.23528466 75.49307426 139.10300984 75.21367877 143.63252258 72.14044189 C146.09924367 68.44036026 146.30330059 65.43342112 145.63252258 61.14044189 C143.8139983 57.92305278 142.50020657 56.52693381 139.12786865 55.02479553 C134.47947694 53.84871109 130.10868705 53.85343885 125.33198547 53.86578369 C124.30847488 53.86067276 123.28496429 53.85556183 122.23043823 53.85029602 C118.85529188 53.83642356 115.48035026 53.83735498 112.10517883 53.83966064 C109.75397669 53.8357726 107.40277524 53.83143771 105.05157471 53.82667542 C100.1264671 53.81921837 95.20143118 53.81950091 90.27632141 53.82476807 C83.97030711 53.83056376 77.66458641 53.81362652 71.35862064 53.79042339 C66.50383798 53.77568021 61.64912596 53.77481514 56.79432487 53.77793312 C54.46954708 53.77742027 52.14476529 53.77218926 49.82000923 53.7621212 C46.56729761 53.74976231 43.31515695 53.75654551 40.06245422 53.76812744 C38.6275766 53.75666183 38.6275766 53.75666183 37.16371155 53.7449646 C30.8008263 53.79495191 25.67057564 54.49439568 20.69502258 58.82794189 Z M20.63252258 112.14044189 C19.03165631 115.34217443 19.13335169 118.66621248 19.63252258 122.14044189 C21.42616169 124.9504765 22.65133194 126.64984657 25.63252258 128.14044189 C27.14154749 128.24108389 28.65490952 128.279848 30.16726685 128.28761292 C31.12200394 128.29476822 32.07674103 128.30192352 33.06040955 128.30929565 C34.11134796 128.31198456 35.16228638 128.31467346 36.24507141 128.31744385 C37.34923904 128.32401505 38.45340668 128.33058624 39.59103394 128.33735657 C43.25720786 128.35712151 46.92334078 128.36875874 50.58955383 128.37872314 C51.83919104 128.38279867 53.08882824 128.3868742 54.37633324 128.39107323 C60.30676049 128.4097927 66.23717466 128.42435599 72.16762429 128.4326852 C79.01217146 128.44245704 85.85639518 128.46877462 92.70082837 128.50918609 C98.62963389 128.54298946 104.55836018 128.55483059 110.48726463 128.55888939 C113.00908795 128.56376946 115.53090746 128.57542352 118.05266762 128.59392738 C121.57930568 128.61819795 125.10509467 128.61737555 128.63179016 128.6104126 C129.67665588 128.62322266 130.72152161 128.63603271 131.79804993 128.64923096 C137.57307179 128.60843502 137.57307179 128.60843502 142.75756836 126.23606873 C145.69599585 122.95180322 145.96563416 120.59521486 145.92549133 116.17950439 C145.46997292 113.00909623 143.87936601 111.32120169 141.63252258 109.14044189 C139.24420799 107.9462846 137.76432372 108.00696175 135.09777832 107.99327087 C134.14304123 107.98611557 133.18830414 107.97896027 132.20463562 107.97158813 C131.1536972 107.96889923 130.10275879 107.96621033 129.01997375 107.96343994 C127.91580612 107.95686874 126.81163849 107.95029755 125.67401123 107.94352722 C122.00783731 107.92376228 118.34170438 107.91212505 114.67549133 107.90216064 C113.42585413 107.89808512 112.17621693 107.89400959 110.88871193 107.88981056 C104.95828467 107.87109109 99.02787051 107.8565278 93.09742087 107.84819859 C86.2528737 107.83842675 79.40864999 107.81210917 72.56421679 107.7716977 C66.63541127 107.73789433 60.70668499 107.7260532 54.77778053 107.7219944 C52.25595721 107.71711433 49.7341377 107.70546027 47.21237755 107.68695641 C43.68573948 107.66268584 40.1599505 107.66350824 36.633255 107.67047119 C35.58838928 107.65766113 34.54352356 107.64485107 33.46699524 107.63165283 C27.95354982 107.67140002 24.5299034 107.78435911 20.63252258 112.14044189 Z M21.63252258 164.14044189 C19.1658015 167.84052353 18.96174458 170.84746267 19.63252258 175.14044189 C21.45104686 178.357831 22.7648386 179.75394998 26.13717651 181.25608826 C30.78556823 182.4321727 35.15635812 182.42744494 39.93305969 182.4151001 C40.95657028 182.42021103 41.98008087 182.42532196 43.03460693 182.43058777 C46.40975328 182.44446022 49.78469491 182.44352881 53.15986633 182.44122314 C55.51106848 182.44511119 57.86226992 182.44944608 60.21347046 182.45420837 C65.13857807 182.46166542 70.06361398 182.46138288 74.98872375 182.45611572 C81.29473806 182.45032003 87.60045876 182.46725727 93.90642452 182.4904604 C98.76120718 182.50520358 103.61591921 182.50606865 108.47072029 182.50295067 C110.79549809 182.50346352 113.12027988 182.50869453 115.44503593 182.51876259 C118.69774756 182.53112148 121.94988821 182.52433828 125.20259094 182.51275635 C126.15917603 182.52040009 127.11576111 182.52804382 128.10133362 182.53591919 C134.46421886 182.48593188 139.59446952 181.78648811 144.57002258 177.45294189 C146.14957793 174.01508613 146.42359177 170.7982297 145.63252258 167.14044189 C143.09798602 163.92089544 141.51954954 162.43611755 137.63252258 161.14044189 C136.13599943 161.04543865 134.6356337 161.00557141 133.1361084 161 C132.21509842 160.99428986 131.29408844 160.98857971 130.34516907 160.98269653 C129.33679993 160.98157867 128.32843079 160.98046082 127.289505 160.97930908 C126.22581192 160.97434418 125.16211884 160.96937927 124.06619263 160.96426392 C120.540119 160.94963449 117.01409035 160.94283896 113.48799133 160.93731689 C111.0404256 160.93156608 108.59285989 160.92580834 106.14529419 160.92004395 C101.00976857 160.90953173 95.87425862 160.9036905 90.73872375 160.90020752 C84.15790242 160.8947224 77.57728794 160.87069469 70.99653149 160.84223557 C65.93934524 160.82361283 60.88220886 160.81840377 55.82499123 160.81687164 C53.3989022 160.81384377 50.97281407 160.80581075 48.54675865 160.79268646 C45.15225355 160.77563408 41.7582543 160.77750452 38.36372375 160.78399658 C37.36142731 160.7747818 36.35913086 160.76556702 35.32646179 160.756073 C30.02976051 160.78780953 26.16203533 161.06720502 21.63252258 164.14044189 Z " fill="#79C0FA" transform="translate(173.3674774169922,137.85955810546875)"/>
</svg>


